<svg viewBox="0 0 576 512" xmlns="http://www.w3.org/2000/svg"><rect x="116" y="106" width="293" height="284" fill="rgb(255, 255, 255)"></rect>
    <path class="fill-000000" d="M 333.5 208.4 c 0 -22.1 -15.6 -34.3 -43 -34.3 h -50.4 v 71.2 h 42.5 c 32.8 -0.1 50.9 -13.3 50.9 -36.9 z M 517 195.6 c -9.5 -30.9 -10.9 -68.8 -9.8 -98.1 C 508.3 67 484.5 39 452.5 39 H 123.7 C 91.6 39 67.9 67.1 69 97.5 c 1 29.3 -0.3 67.2 -9.8 98.1 c -9.6 31 -25.7 50.6 -52.2 53.1 v 28.5 c 26.4 2.5 42.6 22.1 52.2 53.1 c 9.5 30.9 10.9 68.8 9.8 98.1 c -1.1 30.5 22.7 58.5 54.7 58.5 h 328.7 c 32.1 0 55.8 -28.1 54.7 -58.5 c -1 -29.3 0.3 -67.2 9.8 -98.1 c 9.6 -31 25.7 -50.6 52.1 -53.1 v -28.5 c -26.3 -2.5 -42.5 -22.1 -52 -53.1 z M 300.2 382.1 h -97.9 V 143.8 h 97.4 c 43.3 0 71.7 23.4 71.7 59.4 c 0 25.3 -19.1 47.9 -43.5 51.8 v 1.3 c 33.2 3.6 55.5 26.6 55.5 58.3 c 0 42.1 -31.3 67.5 -83.2 67.5 z m -10 -108.7 h -50.1 v 78.4 h 52.3 c 34.2 0 52.3 -13.7 52.3 -39.5 c 0 -25.7 -18.6 -38.9 -54.5 -38.9 z" fill="#7008f5"/>
</svg>