<svg version="1.0" viewBox="0 0 200 200" xml:space="preserve" xmlns="http://www.w3.org/2000/svg"><path d="M187.5 85.6c0-.1 0-.1 0 0-.1-.3-.2-.6-.4-.7l-18.9-20.2-18.9-20.2-18.9-20.2c-.3-.3-.7-.5-1.2-.5l-27.6 1.9L74 27.6l-27.6 1.9c-.2 0-.3.1-.5.1-.5.1-.9.4-1.1.9L34.2 58.3 23.4 86l-10.9 27.6c-.2.5-.1 1.2.3 1.6l19.8 20.5 18 19.8 18.9 20.2s.1 0 .1.1l.1.1c.1 0 .1.1.2.1 0 0 .1 0 .1.1.1 0 .1.1.2.1h.5l27.6-1.9 27.6-1.9 27.6-1.9c.6 0 1.1-.4 1.3-.9l10.9-27.6 10.9-27.6 10.9-27.6c.1-.5.1-.9 0-1.2zM173 115.4l-9.6 24.5-21 1.4-3.3.2 9.6-24.5 21-1.4 3.3-.2zm-95 44.8 4.6-11.7 21.1-1.5 3.2-.2-9.6 24.5L73 173l5-12.8zm-42.5-25.8 9.6-24.5 15.8 17.3-9.6 24.5-15.8-17.3zM147.7 47l16.2 17.4-5 .4-18.7 1.3L124 48.7l5.2-.4 18.5-1.3zM119 116.1l-24.3 1.7 9.6-24.5 24.3-1.7-5.1 13.1-4.5 11.4zm20-46.9 16.2 17.4-23.7 1.7-16.2-17.4 1.3-.1 22.4-1.6zm-27.6 1.9 16.2 17.4-23.6 1.6-16.3-17.3 5.2-.4 18.5-1.3zM75.2 98.9l.4-1.1 9.2-23.5 16.7 17.8-1 2.6-8.6 22-4.8-5.1-11.9-12.7zm8.6 46.5 9.6-24.5 24.3-1.7-9.6 24.5-21.1 1.5-3.2.2zm38.5-29.6 5.1-13.1 4.5-11.4 24.3-1.7-9.6 24.5-22.6 1.6-1.7.1zM120.1 49l16.2 17.4-1.3.1-22.4 1.5-16.2-17.3 5.2-.4 18.5-1.3zm-27.6 1.9 16.2 17.4-5.2.4L85.1 70l-6.5-7-9.5-10.5.7-.1 22.7-1.5zm-25.7 3.9 9.6 10.3 6.2 6.9-9 22.9-.6 1.5-1.7-1.8-14.1-15.5 8.2-20.9 1.4-3.4zM56 82.2l1.7 1.8 14.1 15.5-8.2 20.9-1.4 3.6-3.5-3.8-12.3-13.5 9-22.9.6-1.6zm8.4 44.3 1-2.6 8.6-22 4.8 5.1 11.9 12.7-.4 1.1-9.3 23.5-3.8-4.1-12.8-13.7zm47 17L121 119l21-1.4 3.3-.2-9.6 24.5-21 1.4-3.3.2zm47.7-57.2-16.2-17.4 5-.4 18.7-1.3 16.2 17.4-23.7 1.7zm-30.3-59.4L145 44.2l-5.2.4-18.5 1.3-16.2-17.4 23.7-1.6zm-27.6 1.9 16.2 17.4-5.2.4-18.5 1.3-16.2-17.4 23.7-1.7zm-27.5 2 16.2 17.4-1 .1-22.5 1.6-9.1-9.4-7.4-8 23.8-1.7zM47 34l8.2 8.5 9.3 9.9-1.4 3.6L55 76.7 37.4 58.5 47 34zM36.2 61.6l17.6 18.2-1.4 3.7-8.2 20.9-17.7-18.2 9.7-24.6zM25.3 89.2l10.8 11.2 6.8 7-9.7 24.6-17.6-18.2 9.7-24.6zm29.9 60.6 7.9-20.2 3.8 4.1 12.9 13.7-1.7 4.3-7.9 20.2-16.7-17.8 1.7-4.3zm55-3.2 21-1.4 3.3-.2-9.6 24.5-24.3 1.7 9.6-24.6zm42.3 20.9-24.3 1.7 9.6-24.5 22.6-1.6 1.7-.1-9.6 24.5zm21.7-55.2-21 1.4-3.3.2 9.6-24.5 24.3-1.7-9.6 24.6z" fill="#ffffff" class="fill-1d1d1b"></path></svg>