<svg viewBox="0 0 64 64" xmlns="http://www.w3.org/2000/svg"><g data-name="home workout"><rect height="32" rx="2" width="6" x="15" y="16" fill="none" stroke="#000000" stroke-linejoin="round" stroke-width="2px" class="stroke-0a1c28"></rect><rect height="22" rx="2" width="6" x="9" y="21" fill="none" stroke="#000000" stroke-linejoin="round" stroke-width="2px" class="stroke-0a1c28"></rect><rect height="14" rx="2" width="6" x="3" y="25" fill="none" stroke="#000000" stroke-linejoin="round" stroke-width="2px" class="stroke-0a1c28"></rect><rect height="32" rx="2" transform="rotate(-180 46 32)" width="6" x="43" y="16" fill="none" stroke="#000000" stroke-linejoin="round" stroke-width="2px" class="stroke-0a1c28"></rect><rect height="22" rx="2" transform="rotate(-180 52 32)" width="6" x="49" y="21" fill="none" stroke="#000000" stroke-linejoin="round" stroke-width="2px" class="stroke-0a1c28"></rect><rect height="14" rx="2" transform="rotate(-180 58 32)" width="6" x="55" y="25" fill="none" stroke="#000000" stroke-linejoin="round" stroke-width="2px" class="stroke-0a1c28"></rect><path d="M21 32h22" fill="none" stroke="#000000" stroke-linejoin="round" stroke-width="4px" class="stroke-0a1c28"></path><path d="m32 16-5 4h2v4h2v-2a1 1 0 0 1 2 0v2h2v-4h2Z" fill="#000000" class="fill-0a1c28"></path><path d="M27 27h10" fill="none" stroke="#000000" stroke-miterlimit="10" stroke-width="2px" class="stroke-0a1c28"></path></g></svg>